<svg id="Layer_1" data-name="Layer 1" xmlns="http://www.w3.org/2000/svg" viewBox="0 0 424.52 229.79"><defs><style>.cls-1{fill:#55ab59;}</style></defs><title>logo</title><path class="cls-1" d="M611.49,378c-2.83,9-5.58,18.08-8.53,27.07-4.1,12.47-8.15,24.95-12.62,37.29-1.94,5.35-5.21,10.1-10.6,12.76-6.23,3.08-14.46,1.05-20.61-4.61-6.7-6.17-10.44-14.07-13.68-22.32a234.89,234.89,0,0,1-15-59.23c-.13-1.15-.35-2.29-.52-3.44-.42-4.61-1-9.21-1.19-13.82-.21-5.06-.16-10.14,0-15.21.35-11.32.83-22.64-2.52-33.66a42.32,42.32,0,0,0-2.61-6.19c-1.77-3.65-3.13-4.24-6.6-2a126.44,126.44,0,0,0-13.91,10.06,47.88,47.88,0,0,0-11.56,15.83c-2.82,5.87-4.37,11.91.06,18.2a14.58,14.58,0,0,1-9.28-1.68c-10.36-5.06-13.78-16.7-8.1-27.16,4-7.4,9.87-13.08,16.39-18.25a64.61,64.61,0,0,1,18.28-9.85c10.58-3.84,19.08-.44,24.79,9.59s9,21.27,11.21,32.65c2.45,12.89,4.44,25.86,6.65,38.8.12.73.34,1.45.52,2.18,2.77,14.47,5.41,29,8.37,43.41,2.2,10.69,5.52,21.05,11.11,30.54,1.44,2.45,3.12,4.77,5,7.61.82-1.67,1.37-2.67,1.81-3.72,5.93-14.14,10.07-28.84,13.73-43.69,1.23-5,2.4-10.08,3.6-15.13,2-7.72,3.93-15.46,6-23.15,1.25-4.64,2.6-9.25,4.13-13.8,2.34-7,4.47-14.11,7.43-20.85,4.72-10.72,9.85-21.28,15.22-31.7A173.07,173.07,0,0,1,639.62,276c3.78-5.49,9.38-7,14.1-4.39,3.23,1.81,5.8,4.42,6.59,8.27.51,2.51.85,5,1.27,7.58l-.29.24c-4-1.76-6.71-1.08-9.5,3-4.29,6.32-8.59,12.65-12.44,19.24-10.17,17.44-17.38,36.19-23.84,55.25C614.08,369.42,612.83,373.73,611.49,378Z" transform="translate(-471.46 -270.32)"/><path class="cls-1" d="M794.65,466.76c4.67,1.14,7.91-1.26,10.61-4.5A57.49,57.49,0,0,0,817.46,435c2.13-12.1,3.64-24.3,5.4-36.47a3.2,3.2,0,0,0-.45-2.11c-1.33,1.94-2.64,3.89-4,5.81-4.95,7.1-9.77,14.28-14.9,21.25-4,5.37-6.9,5.75-12.38,1.88a52,52,0,0,1-7.14-6.21c-2.48-2.53-2.92-6-3-9.3,0-4.23-.32-8.61.59-12.68,2.22-10,4.74-19.94,12.11-27.67,3.65-3.83,7.44-7.5,12.22-10,7.84-4.15,16.82-2.11,21.53,5.33,1.79,2.83,3.09,6,4.79,9.34a6.06,6.06,0,0,1-1.59.08c-8.26-2.92-15,0-20.51,5.94A57,57,0,0,0,795,412.33c-.34,2.7-.4,5.43-.65,9,1.89-1.46,3.21-2.36,4.4-3.42a114.3,114.3,0,0,0,23.88-29.6c1.27-2.28,1.1-5.44,1.33-8.21s.57-3.16,3.11-2.09c5.78,2.43,9.35,7.06,12.07,12.44a5.65,5.65,0,0,1,.33,2.93c-1,9.92-1.75,19.86-3,29.74a144.23,144.23,0,0,1-7.87,32.66,56.88,56.88,0,0,1-8.42,15.49c-4.92,6.21-14.18,5.92-19.19,2.3a74.74,74.74,0,0,1-6.73-6.13Z" transform="translate(-471.46 -270.32)"/><path class="cls-1" d="M774.5,468c-2.19.77-4.38,1.56-6.59,2.3a9.82,9.82,0,0,1-5.5.35c-7.34-1.63-14.73-3.07-22.15-4.27a158.9,158.9,0,0,0-18.3-2.2c-14-.61-28.09-1.3-42.12-1-11.84.25-23.69,1.55-35.48,2.93a238.65,238.65,0,0,0-40.7,8.37c-13,3.88-25.86,8-37.22,15.71-4.53,3.07-9.1,6.08-13.66,9.11a15.37,15.37,0,0,1-1.65.8,39.43,39.43,0,0,1,15-18.24c13.91-9.2,29.23-15.27,45-20.19,10.91-3.41,22.12-5.8,33.22-8.57,12.4-3.09,25.1-4.21,37.79-5,11.93-.78,23.92-.79,35.89-1.14,7.44.53,14.9.88,22.31,1.62a253,253,0,0,1,47.07,9,14.3,14.3,0,0,1,1.49.62C785,463,779.61,465.33,774.5,468Z" transform="translate(-471.46 -270.32)"/><path class="cls-1" d="M773,433.3c-2.48-.54-4.63-.6-6.38-1.47a36.29,36.29,0,0,1-7.68-5,9.68,9.68,0,0,1-2.86-5c-1.34-6-2.32-12-3.46-18.19-1.41,3.47-2.56,7.1-4.31,10.41A131.48,131.48,0,0,1,740.42,427c-2.23,3.25-5,4-8.5,2.28-9.54-4.83-13.77-9.62-13.49-19.47a87.67,87.67,0,0,1,4.62-24.65,37.66,37.66,0,0,1,13.23-18.24c1.18-.92,2.29-1.91,3.41-2.9,4.61-4.06,9.71-5.27,15.4-2.53,5.1,2.46,9,5.89,9.47,12.07a3.73,3.73,0,0,0,1.37,2.15c2,1.67,4,3.28,6.08,4.77a2.61,2.61,0,0,1,1.13,3.36c-2.5,8.76-4.11,17.72-3.5,26.81.47,6.84,2,13.61,3,20.41C772.71,431.55,772.79,432,773,433.3Zm-16.85-57.16c-16.09,9.06-26.15,33.33-23.74,46.62C739.72,420.53,756.9,387.09,756.14,376.14Z" transform="translate(-471.46 -270.32)"/><path class="cls-1" d="M682.51,432.56A26.11,26.11,0,0,1,669.74,428a4.46,4.46,0,0,1-1.74-2.74c-1.41-8.68-2.69-17.38-4-26.08-.28-1.87-.4-3.77-.6-5.66-.13-9.65-.44-19.3-.37-28.94a238.75,238.75,0,0,1,3.69-39.12c1.25-7.19,2.52-14.39,3.87-22.07a13.37,13.37,0,0,1,2.29,1.36c3.87,3.77,7.74,7.54,11.47,11.45a4,4,0,0,1,.74,2.9c-1.32,12-2.77,23.92-4.12,35.89-1.88,16.49-2,33.05-1.39,49.59.29,8.19,1.7,16.34,2.59,24.51C682.32,430.24,682.4,431.4,682.51,432.56Z" transform="translate(-471.46 -270.32)"/><path class="cls-1" d="M708.9,432.58a27.27,27.27,0,0,1-13.69-5.23,3.55,3.55,0,0,1-1-2.19c-1.27-8.46-2.79-16.9-3.6-25.4-.88-9.25-1.26-18.56-1.5-27.85a137,137,0,0,1,.53-19.44c1.55-13.27,3.65-26.47,5.56-39.69.43-3,1-6,1.59-9.67a52.81,52.81,0,0,1,5.61,4.17c2.91,2.85,5.67,5.86,8.3,9a4.7,4.7,0,0,1,.68,3.27c-1.51,13.44-3.17,26.88-4.68,40.33-.41,3.62-.54,7.29-.63,10.94-.23,8.73-.53,17.46-.49,26.19a196.56,196.56,0,0,0,3.12,33.45C708.78,431,708.79,431.54,708.9,432.58Z" transform="translate(-471.46 -270.32)"/><path class="cls-1" d="M862.79,405.44a22,22,0,0,0-.67,4.4c.11,4.14.49,8.27.74,12.41.16,2.75,1.9,3.48,4.33,3.79,8.53,1.06,15.08-2.21,20.2-8.84.67-.86,1.39-1.66,2.12-2.46.14-.16.41-.2.65-.3,1.12,8.79-7.33,18.4-16.25,19.19-9.87.86-16.28-4.2-21.36-11.67-7-10.36-7.31-21.64-3.9-33.26a45.17,45.17,0,0,1,16.72-24.23c6.35-4.7,13-3.38,19.49,0,5.93,3.05,9,8.58,10.7,14.45,1.33,4.5-.68,9.26-2.86,13.4-4.88,9.23-12.9,14.21-23.09,15.43C867.52,408,865.2,406.3,862.79,405.44Zm23.57-25.13c0-2.86-.38-3.29-3.24-2.52-9.77,2.63-15.35,9.43-18.23,18.77-.89,2.9-.2,3.73,2.87,3.9a8.26,8.26,0,0,0,2-.14C877.93,398.76,886.28,388.7,886.36,380.31Z" transform="translate(-471.46 -270.32)"/><path class="cls-1" d="M654.44,393a26.41,26.41,0,0,0-.38,2.65,121.2,121.2,0,0,0,3.81,36.23,3.44,3.44,0,0,1-.06.95,15.32,15.32,0,0,1-8.74-2.94,30.13,30.13,0,0,1-14-23.8c-.56-7.3.16-14.69.31-22l3.38-27.11c1.13.57,2.09,1,3,1.5,4.71,3,9.39,6,14.1,8.95,1.27.81,1.54,1.76,1.32,3.35C656.11,378.12,655.31,385.56,654.44,393Z" transform="translate(-471.46 -270.32)"/><path class="cls-1" d="M642,330.17c3.92,1.17,6.57,3.45,9,5.88,1.83,1.8,3.28,4,5,5.86,3.16,3.38,3.35,7.39,2.64,12l-2.05-1.34c-4.73-3.1-9.42-6.26-14.2-9.26-1.28-.81-1.93-1.45-1.64-3.13C641.36,337,641.57,333.8,642,330.17Z" transform="translate(-471.46 -270.32)"/></svg>